<svg version="1.1" id="md-production" xmlns="http://www.w3.org/2000/svg" x="0" y="0" viewBox="0 0 152 152" xml:space="preserve"><style>.st4,.st5{fill:none;stroke-linecap:round;stroke-linejoin:round}.st4{stroke-width:2;stroke:#007bfc}.st5{stroke:#333c5e}.st6,.st9{fill-rule:evenodd;clip-rule:evenodd}.st6{stroke:#06f;stroke-width:2;stroke-linecap:round;stroke-linejoin:round;fill:#06f}.st9{fill:#007bfc}</style><path id="Kształt_1472" d="M13.5 80.5l-6 3c-6 3.1-8.4 6.8-3 10 10.5 6.3 36 19 36 19" fill="none" stroke="#06f" stroke-linecap="round" stroke-linejoin="round"/><linearGradient id="SVGID_1_" gradientUnits="userSpaceOnUse" x1="5.66" y1="81.709" x2="47.009" y2="57.836"><stop offset="0" stop-color="#afcdfd"/><stop offset="1" stop-color="#d7e6fe"/></linearGradient><path d="M40.5 61.4c0-2.7.2-5.1 2.9-6.7l1.3-.8-44.7.6v16.4c0 1.3.6 2.6 2.4 3.6l30 16.4c2.3 1.3 5.6 1.7 8.1 1.1V61.4z" fill-rule="evenodd" clip-rule="evenodd" fill="url(#SVGID_1_)"/><linearGradient id="SVGID_2_" gradientUnits="userSpaceOnUse" x1="8.945" y1="70.506" x2="62.609" y2="39.523"><stop offset="0" stop-color="#97befc"/><stop offset="1" stop-color="#abcaff"/></linearGradient><path d="M40.5 61.4c0-2.7.2-5.1 2.9-6.7l21-12-17.9-9.8c-2.9-1.7-7.3-1.8-9.9-.4L1.7 51.9c-2.5 1.5-2.2 4 .7 5.6l30 16.4c2.3 1.3 5.5 1.7 8.1 1.1V61.4z" fill-rule="evenodd" clip-rule="evenodd" fill="url(#SVGID_2_)"/><linearGradient id="SVGID_3_" gradientUnits="userSpaceOnUse" x1="5.22" y1="56.169" x2="73.181" y2="16.932"><stop offset="0" stop-color="#afcdfd"/><stop offset="1" stop-color="#d7e6fe"/></linearGradient><path d="M40.5 61.4c0-2.7.2-5.1 2.9-6.7l35.5-20.3V29c0-2-.1-3.3-2.4-4.6L46.5 8c-2.9-1.7-7.3-1.8-9.9-.4L1.7 26.9c-.9.4-1.7.8-1.7 2.1v17.1c0 1.5.6 2.6 2.4 3.6l30 16.4c2.3 1.3 5.6 1.7 8.1 1.1v-5.8z" fill-rule="evenodd" clip-rule="evenodd" fill="url(#SVGID_3_)"/><g id="_"><path id="Kształt_1574" class="st4" d="M134.5 17.5l6 12-9 4"/><path id="Kształt_1575" class="st4" d="M138.5 36.5l8 4"/></g><g id="browser"><path id="Prostokąt_zaokrąglony_1356" class="st5" d="M61.4 125.7l-18 10.3c-2.7 1.6-2.9-.4-2.9-3.1V61.4c0-2.7.2-5.1 2.9-6.7l77.2-44.1c2.7-1.6 4.9-1.6 4.9 1.1v73.5c0 2.7-2.2 5.1-4.9 6.7"/><path id="Elipsa_1360" class="st6" d="M47.3 60c.7-.4 1.3-.1 1.3.5-.1.8-.6 1.5-1.3 1.8-.7.4-1.2.1-1.2-.5 0-.8.5-1.5 1.2-1.8z"/><path id="Elipsa_1360_kopia_2" class="st6" d="M61.7 51.9c.7-.4 1.2-.1 1.2.5-.1.8-.6 1.5-1.2 1.8-.7.4-1.2.1-1.2-.5.1-.8.5-1.4 1.2-1.8z"/><path id="Elipsa_1360_kopia" class="st6" d="M54.5 55.9c.7-.4 1.2-.1 1.2.5-.1.8-.6 1.5-1.2 1.8-.7.4-1.2.1-1.2-.5 0-.7.5-1.4 1.2-1.8z"/></g><g id="server_-_blue"><path id="Elipsa_1543_kopia_3" d="M95 141c-1-.7-1.7-1.8-1.7-3-.1-.6.3-1.1.8-1.2.3-.1.7 0 .9.2 1 .7 1.7 1.8 1.7 3 .1.6-.3 1.1-.8 1.2-.3.1-.6 0-.9-.2zm-13-7c-1-.7-1.7-1.8-1.7-3-.1-.6.3-1.1.8-1.2.3-.1.7 0 .9.2 1 .7 1.7 1.8 1.7 3 .1.6-.3 1.1-.8 1.2-.3.1-.6 0-.9-.2zm-11-6c-1-.7-1.7-1.8-1.7-3-.1-.6.3-1.1.8-1.2.3-.1.7 0 .9.2 1 .7 1.7 1.8 1.7 3 .1.6-.3 1.1-.8 1.2-.3.1-.6 0-.9-.2zm-12-7c-1-.7-1.7-1.8-1.7-3-.1-.6.3-1.1.8-1.2.3-.1.7 0 .9.2 1 .7 1.7 1.8 1.7 3 .1.6-.3 1.1-.8 1.2-.3.1-.6 0-.9-.2z" fill-rule="evenodd" clip-rule="evenodd" fill="#333c5e"/><path id="Prostokąt_zaokrąglony_1402_kopia_17" class="st5" d="M107.5 83.5l41.6 22.9c2.9 1.7 3.2 7.2.7 8.6l-50.3 29.5s3.2-5.5-1.5-8.4l-42.5-23.6"/><path id="Kształt_1541" d="M100.5 143.8s-2 2.1-6 0c-13-6.9-40-22-40-22" fill-rule="evenodd" clip-rule="evenodd" fill="#fff" stroke="#333c5e" stroke-linecap="round" stroke-linejoin="round"/><path id="Prostokąt_zaokrąglony_1402_kopia_3-2" class="st9" d="M144 106.4c-.2.9-.9 1.7-1.7 2.1l-34.9 20c-2.5 1.5-7 1.3-9.9-.4l-30-16.9c-1.8-1-2.6-2.4-2.4-3.7V90.9l78.9-2v17.5z"/><path id="Prostokąt_zaokrąglony_1402_kopia_4-2" d="M66.9 88.5l34.8-19.2c2.5-1.4 6.9-1.3 9.9.4l30 16.3c2.9 1.6 3.2 4.2.7 5.6l-34.8 19.2c-2.5 1.4-6.9 1.3-9.9-.4L67.6 94c-5.3-2.9-.9-5.4-.7-5.5z" fill-rule="evenodd" clip-rule="evenodd" fill="#06f"/><path id="Prostokąt_zaokrąglony_1402_kopia_16-2" class="st9" d="M144 82c-.2.9-.9 1.7-1.7 2.1l-34.9 19.4c-2.5 1.4-7 1.3-9.9-.4l-30-16.4c-1.8-1-2.6-2.4-2.4-3.6V67c.2-.9.8-1.6 1.7-2l34.9-19.5c2.5-1.4 7-1.3 9.9.4l30 16.5c1.8 1 2.6 2.4 2.4 3.6v16z"/></g></svg>